<?xml version="1.0"?>
<svg width="768" height="767.999994" xmlns="http://www.w3.org/2000/svg" xmlns:svg="http://www.w3.org/2000/svg" preserveAspectRatio="xMidYMid meet" version="1.0">
 <defs>
  <g id="svg_1"/>
 </defs>
 <g class="layer">
  <title>Layer 1</title>
  <g fill="#ffffff" id="svg_22">
   <g id="svg_23" transform="translate(128.081341, 530.296079)">
    <g id="svg_24"/>
   </g>
  </g>
  <g fill="#1aede6" id="svg_49">
   <g id="svg_50" transform="translate(26.214175, 532.429038)">
    <g id="svg_51">
     <path d="m31.23,-121.66c20.23,-3.77 30.35,-14.18 30.35,-31.23c0,-7.53 -1,-20.42 -2.99,-38.67c-1.98,-19.43 -2.96,-33.51 -2.96,-42.24c0,-14.28 4.01,-25.18 12.04,-32.72c8.03,-7.53 18.79,-11.31 32.27,-11.31l17.26,0l0,23.5l-12.2,0c-7.73,0 -13.48,1.74 -17.25,5.22c-3.77,3.47 -5.66,9.17 -5.66,17.09c0,5.75 0.4,12.84 1.19,21.27c0.8,8.43 1.3,14.13 1.5,17.11c1.98,19.03 2.97,32.91 2.97,41.64c0,10.51 -2.63,19.29 -7.89,26.33c-5.25,7.04 -13.33,11.75 -24.23,14.12l0,0.6c10.9,2.38 18.98,7.15 24.23,14.28c5.26,7.13 7.89,15.96 7.89,26.47c0,8.73 -0.99,22.61 -2.97,41.64c-0.2,2.98 -0.7,8.68 -1.5,17.11c-0.79,8.43 -1.19,15.51 -1.19,21.26c0,7.94 1.89,13.64 5.66,17.11c3.77,3.47 9.52,5.21 17.25,5.21l12.2,0l0,23.5l-17.26,0c-13.48,0 -24.24,-3.78 -32.27,-11.32c-8.03,-7.53 -12.04,-18.43 -12.04,-32.72c0,-8.71 0.98,-22.79 2.96,-42.23c1.99,-18.24 2.99,-31.13 2.99,-38.67c0,-17.05 -10.12,-27.46 -30.35,-31.24l0,-21.11zm0,0" id="svg_52"/>
    </g>
   </g>
  </g>
  <g fill="#1aede6" id="svg_53">
   <g id="svg_54" transform="translate(612.330213, 536.009965)">
    <g id="svg_55">
     <path d="m106.92,-101.23c-20.37,3.79 -30.54,14.27 -30.54,31.45c0,7.58 1,20.56 3,38.94c1.98,19.56 2.98,33.73 2.98,42.53c0,14.37 -4.04,25.35 -12.13,32.94c-8.08,7.58 -18.91,11.37 -32.5,11.37l-17.37,0l0,-23.66l12.28,0c7.79,0 13.58,-1.75 17.38,-5.25c3.78,-3.49 5.68,-9.22 5.68,-17.2c0,-5.79 -0.4,-12.93 -1.2,-21.42c-0.79,-8.49 -1.29,-14.23 -1.48,-17.22c-2,-19.16 -3,-33.14 -3,-41.94c0,-10.58 2.64,-19.47 7.93,-26.65c5.29,-7.19 13.43,-11.98 24.41,-14.38l0,-0.59c-10.98,-2.4 -19.12,-7.14 -24.41,-14.22c-5.29,-7.1 -7.93,-15.93 -7.93,-26.52c0,-8.78 1,-22.75 3,-41.92c0.19,-3 0.69,-8.74 1.48,-17.22c0.8,-8.49 1.2,-15.63 1.2,-21.42c0,-7.99 -1.9,-13.73 -5.68,-17.22c-3.8,-3.5 -9.59,-5.25 -17.38,-5.25l-12.28,0l0,-23.65l17.37,0c13.59,0 24.42,3.79 32.5,11.39c8.09,7.58 12.13,18.56 12.13,32.93c0,8.78 -1,22.96 -2.98,42.53c-2,18.37 -3,31.35 -3,38.94c0,17.17 10.17,27.65 30.54,31.44l0,21.27zm0,0" id="svg_56"/>
    </g>
   </g>
  </g>
  <text fill="#f7f4f4" font-family="Serif" font-size="114.33" id="svg_57" stroke="#000000" stroke-width="0" text-anchor="middle" x="388.5" xml:space="preserve" y="385.21">Anderson</text>
  <text fill="#f7f4f4" font-family="Serif" font-size="114.57" id="svg_59" stroke="#f7efef" stroke-width="0" text-anchor="middle" transform="matrix(1 0 0 1 0 0)" x="378" xml:space="preserve" y="526">Santos</text>
 </g>
</svg>